<svg width="134" height="134" viewBox="0 0 134 134" fill="none" xmlns="http://www.w3.org/2000/svg">
<g clip-path="url(#clip0_1988_46)">
<path d="M100.5 61.417C100.5 65.1578 100.5 68.8428 100.5 72.5837C107.2 72.5837 115.91 72.5837 122.833 72.5837C122.833 68.8428 122.833 65.1578 122.833 61.417C115.91 61.417 107.2 61.417 100.5 61.417Z" fill="#10316B"/>
<path d="M89.3333 98.3222C94.6933 102.286 101.672 107.535 107.2 111.666C109.433 108.707 111.667 105.692 113.9 102.733C108.372 98.6013 101.393 93.353 96.0333 89.333C93.7999 92.348 91.5666 95.363 89.3333 98.3222Z" fill="#10316B"/>
<path d="M113.9 31.2663C111.667 28.3072 109.433 25.2922 107.2 22.333C101.672 26.4647 94.6933 31.713 89.3333 35.733C91.5666 38.6922 93.7999 41.7072 96.0333 44.6663C101.393 40.6463 108.372 35.4538 113.9 31.2663Z" fill="#10316B"/>
<path d="M22.3334 50.25C16.1917 50.25 11.1667 55.275 11.1667 61.4167V72.5833C11.1667 78.725 16.1917 83.75 22.3334 83.75H27.9167V106.083H39.0834V83.75H44.6667L72.5834 100.5V33.5L44.6667 50.25H22.3334ZM50.4176 59.7975L61.4167 53.2092V80.7908L50.4176 74.2025L47.7376 72.5833H44.6667H22.3334V61.4167H44.6667H47.7376L50.4176 59.7975Z" fill="#10316B"/>
<path d="M86.5417 67.0001C86.5417 59.5742 83.3034 52.8742 78.1667 48.2959V85.6484C83.3034 81.1259 86.5417 74.4259 86.5417 67.0001Z" fill="#10316B"/>
</g>
<defs>
<clipPath id="clip0_1988_46">
<rect width="134" height="134" fill="white"/>
</clipPath>
</defs>
</svg>
