<svg width="107" height="108" viewBox="0 0 107 108" fill="none" xmlns="http://www.w3.org/2000/svg">
<g clip-path="url(#clip0_1934_85)">
<path d="M93.6249 22.5C88.6762 20.925 83.237 20.25 78.0208 20.25C69.327 20.25 59.9645 22.05 53.4999 27C47.0353 22.05 37.6728 20.25 28.9791 20.25C20.2853 20.25 10.9228 22.05 4.45825 27V92.925C4.45825 94.05 5.57284 95.175 6.68742 95.175C7.13325 95.175 7.35617 94.95 7.802 94.95C13.8208 92.025 22.5145 90 28.9791 90C37.6728 90 47.0353 91.8 53.4999 96.75C59.5187 92.925 70.4416 90 78.0208 90C85.377 90 92.9562 91.35 99.1978 94.725C99.6437 94.95 99.8666 94.95 100.312 94.95C101.427 94.95 102.542 93.825 102.542 92.7V27C99.8666 24.975 96.9687 23.625 93.6249 22.5ZM93.6249 83.25C88.7208 81.675 83.3708 81 78.0208 81C70.4416 81 59.5187 83.925 53.4999 87.75V36C59.5187 32.175 70.4416 29.25 78.0208 29.25C83.3708 29.25 88.7208 29.925 93.6249 31.5V83.25Z" fill="#10316B"/>
<path d="M78.0208 47.25C81.9441 47.25 85.7337 47.655 89.1666 48.42V41.58C85.6445 40.905 81.8549 40.5 78.0208 40.5C70.4416 40.5 63.5758 41.805 57.9583 44.235V51.705C62.9962 48.825 69.9958 47.25 78.0208 47.25Z" fill="#10316B"/>
<path d="M57.9583 56.2047V63.6747C62.9962 60.7947 69.9958 59.2197 78.0208 59.2197C81.9441 59.2197 85.7337 59.6247 89.1666 60.3897V53.5497C85.6445 52.8747 81.8549 52.4697 78.0208 52.4697C70.4416 52.4697 63.5758 53.8197 57.9583 56.2047Z" fill="#10316B"/>
<path d="M78.0208 64.4854C70.4416 64.4854 63.5758 65.7904 57.9583 68.2204V75.6903C62.9962 72.8103 69.9958 71.2354 78.0208 71.2354C81.9441 71.2354 85.7337 71.6404 89.1666 72.4054V65.5654C85.6445 64.8454 81.8549 64.4854 78.0208 64.4854Z" fill="#10316B"/>
</g>
<defs>
<clipPath id="clip0_1934_85">
<rect width="107" height="108" fill="white"/>
</clipPath>
</defs>
</svg>
