<svg width="25" height="25" viewBox="0 0 25 25" fill="none" xmlns="http://www.w3.org/2000/svg">
<path d="M22.95 24.875L14.2875 16.2125C13.6 16.7625 12.8094 17.1979 11.9156 17.5187C11.0219 17.8396 10.0708 18 9.0625 18C6.56458 18 4.45075 17.1347 2.721 15.404C0.99125 13.6733 0.125917 11.5595 0.125 9.0625C0.125 6.56458 0.990333 4.45075 2.721 2.721C4.45167 0.99125 6.5655 0.125917 9.0625 0.125C11.5604 0.125 13.6743 0.990333 15.404 2.721C17.1338 4.45167 17.9991 6.5655 18 9.0625C18 10.0708 17.8396 11.0219 17.5187 11.9156C17.1979 12.8094 16.7625 13.6 16.2125 14.2875L24.875 22.95L22.95 24.875ZM9.0625 15.25C10.7812 15.25 12.2424 14.6482 13.446 13.4446C14.6496 12.241 15.2509 10.7803 15.25 9.0625C15.25 7.34375 14.6482 5.88258 13.4446 4.679C12.241 3.47542 10.7803 2.87408 9.0625 2.875C7.34375 2.875 5.88258 3.47679 4.679 4.68038C3.47542 5.88396 2.87408 7.34467 2.875 9.0625C2.875 10.7812 3.47679 12.2424 4.68038 13.446C5.88396 14.6496 7.34467 15.2509 9.0625 15.25Z" fill="#787878"/>
</svg>
